<svg width="481" height="700" xmlns="http://www.w3.org/2000/svg" preserveAspectRatio="xMidYMid meet" version="1.0">

 <g>
  <title>Layer 1</title>
  <rect stroke="#000" id="svg_3" height="608.99999" width="389.00001" y="45" x="50.5" fill="#fff"/>
  <g id="svg_1" fill="#000000" transform="translate(0.000000,700.000000) scale(0.100000,-0.100000)">
   <path id="svg_2" d="m2445,6805c-5,-2 -242,-9 -525,-15c-283,-5 -551,-14 -595,-19c-153,-19 -321,-31 -453,-32c-93,0 -132,-4 -132,-12c0,-7 -21,-25 -48,-42c-85,-54 -206,-147 -254,-197c-62,-63 -80,-123 -119,-383c-17,-110 -44,-290 -61,-400c-27,-179 -30,-233 -35,-510c-3,-170 0,-602 8,-960c19,-906 16,-1434 -11,-1855c-26,-401 -32,-1079 -13,-1595c12,-332 22,-415 58,-485c9,-17 15,-31 15,-32c-4,-17 27,-70 48,-84c24,-16 148,-17 1916,-15c1039,1 1925,6 1967,11c105,12 133,26 210,107l67,69l6,74c3,41 8,163 11,270c11,393 26,701 45,930c25,300 37,504 50,865c14,412 29,796 40,1045c21,456 -4,2339 -36,2688c-14,159 -61,408 -91,484c-17,42 -2,37 -233,65c-118,14 -232,18 -610,18c-256,0 -634,3 -840,8c-206,4 -379,5 -385,2zm1788,-261c37,-7 37,-7 61,-88c34,-114 44,-241 57,-716c5,-228 14,-489 18,-580c5,-91 6,-1135 4,-2320l-5,-2155l-26,-48c-21,-38 -33,-49 -66,-59c-31,-9 -252,-13 -886,-13c-516,-1 -972,-6 -1170,-14c-201,-8 -432,-11 -605,-7c-154,3 -461,9 -682,12c-348,5 -402,8 -408,21c-3,9 -10,77 -15,152c-6,75 -15,170 -20,211c-10,73 -9,342 6,1295c4,215 8,759 9,1210c1,451 5,840 9,865c4,25 8,326 8,670c1,344 5,686 9,760c4,74 10,212 14,305c10,270 27,334 106,397c23,18 58,47 78,64c20,18 45,34 56,37c29,7 3403,8 3448,1z"/>
  </g>
 </g>
</svg>